<?xml version="1.0" encoding="iso-8859-1"?>
<!-- Uploaded to: SVG Repo, www.svgrepo.com, Generator: SVG Repo Mixer Tools -->
<svg fill="#000000" height="800px" width="800px" version="1.1" id="Layer_1" xmlns="http://www.w3.org/2000/svg" xmlns:xlink="http://www.w3.org/1999/xlink" 
	 viewBox="0 0 512 512" xml:space="preserve">
<g transform="translate(0 -1)">
	<g>
		<g>
			<path d="M256,154.6c-23.563,0-42.667,19.104-42.667,42.667c0,23.563,19.104,42.667,42.667,42.667
				c23.563,0,42.667-19.104,42.667-42.667C298.667,173.704,279.563,154.6,256,154.6z M256,222.867c-14.137,0-25.6-11.463-25.6-25.6
				c0-14.137,11.463-25.6,25.6-25.6c14.137,0,25.6,11.463,25.6,25.6C281.6,211.404,270.137,222.867,256,222.867z"/>
			<path d="M437.113,146.067h-37.956c-8.372,0-15.155,6.789-15.155,15.155v1.91h-34.135v-25.598c14.142,0,25.6-11.458,25.6-25.6
				s-11.458-25.6-25.6-25.6h-0.39C345.165,38.491,304.965,1,256,1s-89.165,37.491-93.477,85.333h-0.39
				c-14.142,0-25.6,11.458-25.6,25.6s11.458,25.6,25.6,25.6v25.598h-34.135v-1.91c0-8.366-6.783-15.155-15.155-15.155H74.887
				c-8.365,0-15.155,6.79-15.155,15.155v72.09c0,8.365,6.79,15.155,15.155,15.155h37.956c8.372,0,15.155-6.789,15.155-15.155v-1.913
				h34.135V257c-14.142,0-25.6,11.458-25.6,25.6s11.458,25.6,25.6,25.6v119.467c-14.142,0-25.6,11.458-25.6,25.6
				c0,3.333,0.643,6.514,1.801,9.434c-10.873,2.955-18.868,12.888-18.868,24.7c0,14.142,11.458,25.6,25.6,25.6h221.867
				c14.142,0,25.6-11.458,25.6-25.6c0-11.811-7.995-21.744-18.868-24.7c1.158-2.92,1.801-6.101,1.801-9.434
				c0-14.142-11.458-25.6-25.6-25.6V308.2c14.142,0,25.6-11.458,25.6-25.6s-11.458-25.6-25.6-25.6v-25.602h34.135v1.913
				c0,8.366,6.783,15.155,15.155,15.155h37.956c8.365,0,15.155-6.79,15.155-15.155v-72.09
				C452.268,152.857,445.478,146.067,437.113,146.067z M110.932,231.4H76.798v-68.267h34.133V231.4z M366.933,495.933H145.067
				c-4.716,0-8.533-3.817-8.533-8.533s3.817-8.533,8.533-8.533h17.067h187.733h17.067c4.716,0,8.533,3.817,8.533,8.533
				S371.65,495.933,366.933,495.933z M358.4,453.267c0,4.716-3.817,8.533-8.533,8.533H162.133c-4.716,0-8.533-3.817-8.533-8.533
				s3.817-8.533,8.533-8.533h187.733C354.583,444.733,358.4,448.55,358.4,453.267z M332.8,427.665H179.2V308.2h153.6V427.665z
				 M358.4,282.6c0,4.716-3.817,8.533-8.533,8.533v-0.002H162.133v0.002c-4.716,0-8.533-3.817-8.533-8.533s3.817-8.533,8.533-8.533
				h187.733C354.583,274.067,358.4,277.884,358.4,282.6z M256,18.067c39.532,0,72.087,29.866,76.331,68.267H179.669
				C183.913,47.933,216.468,18.067,256,18.067z M153.6,111.933c0-4.716,3.817-8.533,8.533-8.533h187.733
				c4.716,0,8.533,3.817,8.533,8.533s-3.817,8.533-8.533,8.533v-0.002H162.133v0.002C157.417,120.467,153.6,116.65,153.6,111.933z
				 M128,214.332v-34.133h34.133v34.133H128z M332.8,256.998H179.2v-25.6v-68.267v-25.598h153.6v25.598v68.267V256.998z
				 M384,214.332h-34.133v-34.133H384V214.332z M435.202,231.4h-34.133v-68.267h34.133V231.4z"/>
			<path d="M213.333,402.067c4.713,0,8.533-3.82,8.533-8.533v-51.2c0-4.713-3.82-8.533-8.533-8.533s-8.533,3.82-8.533,8.533v51.2
				C204.8,398.246,208.62,402.067,213.333,402.067z"/>
			<path d="M256,402.067c4.713,0,8.533-3.82,8.533-8.533v-51.2c0-4.713-3.82-8.533-8.533-8.533c-4.713,0-8.533,3.82-8.533,8.533
				v51.2C247.467,398.246,251.287,402.067,256,402.067z"/>
			<path d="M298.667,402.067c4.713,0,8.533-3.82,8.533-8.533v-51.2c0-4.713-3.82-8.533-8.533-8.533s-8.533,3.82-8.533,8.533v51.2
				C290.133,398.246,293.954,402.067,298.667,402.067z"/>
		</g>
	</g>
</g>
</svg>