<?xml version="1.0" encoding="utf-8"?><!-- Uploaded to: SVG Repo, www.svgrepo.com, Generator: SVG Repo Mixer Tools -->
<svg fill="#000000" width="800px" height="800px" viewBox="0 0 24 24" id="database-2" data-name="Line Color" xmlns="http://www.w3.org/2000/svg" class="icon line-color"><path id="primary" d="M20,9H4A1,1,0,0,1,3,8V4A1,1,0,0,1,4,3H20a1,1,0,0,1,1,1V8A1,1,0,0,1,20,9Zm0,12H4a1,1,0,0,1-1-1V16a1,1,0,0,1,1-1H20a1,1,0,0,1,1,1v4A1,1,0,0,1,20,21Z" style="fill: none; stroke: rgb(0, 0, 0); stroke-linecap: round; stroke-linejoin: round; stroke-width: 2;"></path><rect id="secondary" x="3" y="9" width="18" height="6" rx="1" style="fill: none; stroke: rgb(44, 169, 188); stroke-linecap: round; stroke-linejoin: round; stroke-width: 2;"></rect></svg>