<?xml version="1.0" encoding="iso-8859-1"?>
<!-- Uploaded to: SVG Repo, www.svgrepo.com, Generator: SVG Repo Mixer Tools -->
<svg height="800px" width="800px" version="1.1" id="Layer_1" xmlns="http://www.w3.org/2000/svg" xmlns:xlink="http://www.w3.org/1999/xlink" 
	 viewBox="0 0 512 512" xml:space="preserve">
<path style="fill:#DBDBDB;" d="M112.384,291.104c-8.944-18.896-23.456-51.504-31.696-80.096L78.656,204l-6.592-3.04
	C38,185.12,16,150.592,16,112.976C16,59.504,59.232,16,112.368,16c53.152,0,96.384,43.504,96.384,96.976
	c0,37.616-22,72.144-56.064,87.984l-6.592,3.056l-2.032,6.992C135.904,239.264,121.536,271.696,112.384,291.104z"/>
<g>
	<path style="fill:#222077;" d="M112.384,32c44.32,0,80.384,36.32,80.384,80.976c0,31.408-18.368,60.24-46.816,73.472l-13.2,6.144
		l-4.048,13.968c-4.256,14.704-10.288,30.656-16.336,45.2c-6.016-14.448-12.048-30.4-16.32-45.2L92,192.576l-13.2-6.144
		C50.368,173.216,32,144.368,32,112.976C32,68.32,68.048,32,112.384,32 M112.384,0C50.304,0,0,50.576,0,112.976
		c0,45.472,26.784,84.56,65.312,102.48c12.176,42.144,36.864,91.536,40.496,98.656l6.592,13.056l6.624-13.056
		c3.6-7.168,28.256-56.528,40.432-98.64c38.528-17.92,65.328-57.008,65.328-102.48C224.768,50.576,174.448,0,112.384,0L112.384,0z"
		/>
	<ellipse style="fill:#222077;" cx="112.464" cy="112.96" rx="37.344" ry="37.536"/>
</g>
<path style="fill:#38C6B4;" d="M399.6,475.984c-8.976-18.928-23.36-51.28-31.696-80.128l-2.032-7.008l-6.592-3.056
	c-34.064-15.856-56.064-50.384-56.064-87.984c0-53.472,43.232-96.976,96.384-96.976s96.384,43.504,96.384,96.976
	c0,37.616-22.016,72.144-56.08,87.968l-6.592,3.072l-2.032,6.992C423.12,424.096,408.992,456.08,399.6,475.984z"/>
<g>
	<path style="fill:#222077;" d="M399.616,216.848c44.32,0,80.384,36.32,80.384,80.976c0,31.408-18.368,60.24-46.816,73.472
		l-13.2,6.144l-4.048,13.984c-4.256,14.704-10.288,30.656-16.336,45.2c-6.016-14.448-12.048-30.4-16.32-45.2l-4.048-13.984
		l-13.2-6.144c-28.432-13.216-46.8-42.064-46.8-73.456C319.216,253.168,355.28,216.848,399.616,216.848 M399.616,184.848
		c-62.064,0-112.384,50.576-112.384,112.976c0,45.472,26.784,84.56,65.312,102.48c12.176,42.144,36.864,91.536,40.496,98.656
		l6.576,13.04l6.624-13.056c3.6-7.168,28.256-56.528,40.432-98.64C485.2,382.4,512,343.296,512,297.824
		C512,235.424,461.68,184.848,399.616,184.848L399.616,184.848z"/>
	<ellipse style="fill:#222077;" cx="399.616" cy="297.824" rx="37.344" ry="37.536"/>
	<polygon style="fill:#222077;" points="415.792,209.648 383.792,209.648 383.792,128.832 215.008,128.832 215.008,96.832 
		415.792,96.832 	"/>
</g>
</svg>